HIERARCHY
ROOT ui
{
	 OFFSET 0 0 0
	 CHANNELS 3 XPosition YPosition Z Position
	 EndSite
	 {
	 OFFSET 0 -1 0
	 }
}
ROOT li
{
	 OFFSET 0 0 0
	 CHANNELS 3 XPosition YPosition Z Position
	 EndSite
	 {
	 OFFSET 0 -1 0
	 }
}
ROOT ul
{
	 OFFSET 0 0 0
	 CHANNELS 3 XPosition YPosition Z Position
	 EndSite
	 {
	 OFFSET 0 -1 0
	 }
}
ROOT ll
{
	 OFFSET 0 0 0
	 CHANNELS 3 XPosition YPosition Z Position
	 EndSite
	 {
	 OFFSET 0 -1 0
	 }
}
ROOT tt
{
	 OFFSET 0 0 0
	 CHANNELS 3 XPosition YPosition Z Position
	 EndSite
	 {
	 OFFSET 0 -1 0
	 }
}
ROOT tb
{
	 OFFSET 0 0 0
	 CHANNELS 3 XPosition YPosition Z Position
	 EndSite
	 {
	 OFFSET 0 -1 0
	 }
}
ROOT td
{
	 OFFSET 0 0 0
	 CHANNELS 3 XPosition YPosition Z Position
	 EndSite
	 {
	 OFFSET 0 -1 0
	 }
}
ROOT v
{
	 OFFSET 0 0 0
	 CHANNELS 3 XPosition YPosition Z Position
	 EndSite
	 {
	 OFFSET 0 -1 0
	 }
}
ROOT bn
{
	 OFFSET 0 0 0
	 CHANNELS 3 XPosition YPosition Z Position
	 EndSite
	 {
	 OFFSET 0 -1 0
	 }
}
MOTION
Frames: 19
Frame Time: 0.002
-0.015113980293273925	-0.004965024948120117	0		0.3836170043945312	-2.464192138671875	0		-1.1091396484375	-0.05514215087890625	0		-0.767221923828125	-2.73542431640625	0		1.7392347412109375	-0.8712891235351562	0		3.308956787109375	-0.494251220703125	0		4.63869580078125	-0.6951683959960937	0		5.84826611328125	0.2571536560058594	0		-0.18636817932128907	5.9078583984375	0		
0.060545276641845704	8.287420272827149E-4	0		0.4432688293457031	-2.463110595703125	0		-1.090003173828125	-0.07941552734375	0		-0.7343515014648437	-2.721916015625	0		1.7334517822265625	-0.8920452270507813	0		3.319262939453125	-0.5092345581054688	0		4.649609375	-0.67511572265625	0		5.85680712890625	0.2572810363769531	0		-0.153919921875	5.91238623046875	0		
-0.01691003227233887	0.0032378110885620116	0		0.38895223999023437	-2.457085205078125	0		-1.1023114013671875	-0.06915692901611328	0		-0.7384790649414062	-2.705784912109375	0		1.7312572021484376	-0.93488330078125	0		3.3279130859375	-0.5022041625976562	0		4.6422666015625	-0.667771240234375	0		5.864314453125	0.2574053039550781	0		-0.03639159393310547	5.9224423828125	0		
0.06141238021850586	-0.007043488025665283	0		0.46732827758789064	-2.4683544921875	0		-1.035968017578125	-0.07826411437988282	0		-0.736879150390625	-2.70377001953125	0		1.722362548828125	-0.9586224975585937	0		3.333294921875	-0.5091396484375	0		4.65654931640625	-0.6808221435546875	0		5.863794921875	0.25764443969726564	0		-0.17041375732421876	5.90379248046875	0		
-0.022012285232543945	4.2868998646736147E-4	0		0.4129503173828125	-2.46236669921875	0		-1.0446239013671874	-0.08510248565673828	0		-0.695298828125	-2.70145654296875	0		1.7611256103515625	-1.0012000122070313	0		3.317771728515625	-0.5087386169433594	0		4.66323291015625	-0.6687623291015625	0		5.86324853515625	0.2578590393066406	0		-0.17015084838867187	5.9018232421875	0		
-0.022583232879638673	4.611330032348633E-4	0		0.41447882080078124	-2.460357177734375	0		-1.03741552734375	-0.09823194122314453	0		-0.7605493774414063	-2.68633447265625	0		1.7292786865234375	-1.0185883178710937	0		3.347022216796875	-0.5201276245117188	0		4.66371337890625	-0.6666224365234374	0		5.86267041015625	0.2580483093261719	0		-0.18980801391601562	5.90617578125	0		
-0.009293425559997558	-0.005764599800109863	0		0.39106002807617185	-2.45294287109375	0		-1.0380189208984374	-0.09824654388427734	0		-0.7478311157226563	-2.671565673828125	0		1.7791978759765625	-1.0483953857421875	0		3.3558544921875	-0.4951843566894531	0		4.67237939453125	-0.6516432495117187	0		5.867193359375	0.26612808227539064	0		-0.1564713134765625	5.91160302734375	0		
-0.019779693603515624	0.0033954689502716066	0		0.44644244384765625	-2.4558935546875	0		-1.052706298828125	-0.1010441665649414	0		-0.7500941772460937	-2.653562744140625	0		1.7734664306640624	-1.055270263671875	0		3.339939697265625	-0.5118455200195312	0		4.6827373046875	-0.6527139282226563	0		5.86141015625	0.2583625793457031	0		-0.040066036224365234	5.92259765625	0		
-0.02450218200683594	4.332900047302246E-4	0		0.414810302734375	-2.457384033203125	0		-1.071457763671875	-0.10579741668701172	0		-0.7225593872070313	-2.646090576171875	0		1.777195068359375	-1.092329833984375	0		3.35326318359375	-0.5130188598632812	0		4.68208349609375	-0.6526116333007812	0		5.8517490234375	0.25965087890625	0		-0.04188821029663086	5.92358349609375	0		
-0.02519637680053711	3.80715012550354E-4	0		0.44113583374023435	-2.460880615234375	0		-1.080266357421875	-0.11274505615234375	0		-0.751982666015625	-2.63467431640625	0		1.77729638671875	-1.1063427734375	0		3.364328369140625	-0.52817041015625	0		4.66837744140625	-0.6543009033203125	0		5.85518212890625	0.2677073669433594	0		-0.17511595153808593	5.903771484375	0		
-0.025898231506347656	3.056809902191162E-4	0		0.3886397705078125	-2.4530615234375	0		-1.07320263671875	-0.12698771667480468	0		-0.745464599609375	-2.626892578125	0		1.7922388916015626	-1.129626708984375	0		3.38496240234375	-0.5094935607910156	0		4.68588037109375	-0.64352978515625	0		5.859318359375	0.2587398681640625	0		-0.20912313842773436	5.8972509765625	0		
0.051383777618408205	-0.0021097071170806886	0		0.3900855712890625	-2.450179443359375	0		-1.0738880615234374	-0.12712232971191406	0		-0.805716796875	-2.606005126953125	0		1.76255859375	-1.1311715087890626	0		3.385918212890625	-0.5315036010742188	0		4.683162109375	-0.6464297485351562	0		5.85890673828125	0.27584414672851565	0		-0.17593879699707032	5.90157177734375	0		
0.0537757682800293	7.203729748725891E-4	0		0.4184989013671875	-2.451774169921875	0		-1.04566357421875	-0.13477146911621093	0		-0.7459481201171875	-2.58717041015625	0		1.815497314453125	-1.1581322021484375	0		3.394396728515625	-0.5246492919921875	0		4.69352685546875	-0.6465591430664063	0		5.8621025390625	0.26787826538085935	0		-0.04445103454589844	5.92221630859375	0		
-0.027858772277832032	-6.044900044798851E-5	0		0.406107421875	-2.444700927734375	0		-1.0854498291015624	-0.14530255126953126	0		-0.7752643432617188	-2.5758603515625	0		1.783853271484375	-1.16268017578125	0		3.408619140625	-0.5359043579101562	0		4.68194287109375	-0.6463248901367188	0		5.86147900390625	0.26797592163085937	0		-0.046291538238525394	5.92308642578125	0		
0.04955427551269531	-0.002538649082183838	0		0.40565875244140626	-2.44485205078125	0		-1.063055908203125	-0.14890623474121092	0		-0.7424769897460938	-2.562619873046875	0		1.8131412353515626	-1.1752701416015625	0		3.4040009765625	-0.5408518676757812	0		4.7023427734375	-0.6506340942382812	0		5.8519091796875	0.26822250366210937	0		-0.1794689483642578	5.903130859375	0		
-0.03198748397827148	-0.004375769138336182	0		0.3803453674316406	-2.44060888671875	0		-1.08869873046875	-0.15773291015625	0		-0.80657861328125	-2.545782470703125	0		1.7992626953125	-1.2011546630859375	0		3.409222412109375	-0.5589774780273438	0		4.6967216796875	-0.6595137329101562	0		5.85652587890625	0.2762293701171875	0		-0.17929360961914062	5.90091162109375	0		
-0.025316740036010744	0.002286736011505127	0		0.3929754638671875	-2.4440234375	0		-1.085086181640625	-0.15507487487792967	0		-0.7906101684570312	-2.529311767578125	0		1.8129281005859375	-1.198512939453125	0		3.436002685546875	-0.5474698486328125	0		4.706609375	-0.6416566162109375	0		5.87404736328125	0.2750162353515625	0		-0.19897665405273438	5.90500048828125	0		
-0.025700096130371095	0.0020436320304870604	0		0.38589437866210935	-2.434128662109375	0		-1.0935760498046876	-0.16224272155761718	0		-0.7925709228515625	-2.51256640625	0		1.8253768310546874	-1.212868408203125	0		3.405371337890625	-0.56402099609375	0		4.71726025390625	-0.6418208618164063	0		5.86781591796875	0.285197509765625	0		-0.04937481307983398	5.92225341796875	0		
0.05095985412597656	-4.966030120849609E-4	0		0.39975527954101564	-2.4326025390625	0		-1.0599501953125	-0.16713340759277343	0		-0.808370361328125	-2.490615478515625	0		1.823853759765625	-1.230007080078125	0		3.420089599609375	-0.5643342895507812	0		4.7028876953125	-0.6475765380859375	0		5.85435546875	0.2774928894042969	0		-0.18238047790527342	5.902173828125	0		
